<svg width="24" height="18" viewBox="0 0 24 18" fill="none" xmlns="http://www.w3.org/2000/svg">
<path d="M20.0221 1.68652C22.6148 5.52203 23.8952 9.84838 23.4165 14.829C23.4145 14.8501 23.4036 14.8694 23.3864 14.8821C21.423 16.3327 19.5208 17.213 17.6453 17.7969C17.6307 17.8013 17.615 17.8011 17.6006 17.7962C17.5861 17.7912 17.5735 17.7819 17.5646 17.7694C17.1313 17.1628 16.7376 16.5233 16.3927 15.8517C16.3729 15.8121 16.391 15.7645 16.4317 15.7489C17.057 15.5118 17.6516 15.2277 18.2235 14.8914C18.2685 14.8648 18.2714 14.7998 18.2298 14.7686C18.1084 14.678 17.9882 14.5827 17.8731 14.4874C17.8516 14.4698 17.8226 14.4663 17.7982 14.4782C14.0853 16.2034 10.018 16.2034 6.26114 14.4782C6.23675 14.4672 6.20777 14.471 6.18682 14.4883C6.07204 14.5836 5.95152 14.678 5.83128 14.7686C5.78967 14.7998 5.79312 14.8648 5.83846 14.8914C6.41036 15.2214 7.00493 15.5118 7.62935 15.75C7.66981 15.7656 7.68904 15.8121 7.66895 15.8517C7.33149 16.5241 6.93779 17.1637 6.49645 17.7703C6.47722 17.7948 6.44566 17.8061 6.41581 17.7969C4.54916 17.213 2.64693 16.3327 0.683579 14.8821C0.667222 14.8694 0.655457 14.8492 0.653735 14.8281C0.253718 10.52 1.06896 6.15782 4.04498 1.68566C4.05216 1.67382 4.06306 1.66458 4.07569 1.65909C5.54002 0.982886 7.10881 0.485402 8.74848 0.20129C8.77832 0.196671 8.80817 0.21053 8.82366 0.237093C9.02625 0.598007 9.25783 1.06084 9.4145 1.43908C11.1428 1.17345 12.8982 1.17345 14.6626 1.43908C14.8193 1.06893 15.0429 0.598007 15.2446 0.237093C15.2518 0.223915 15.2629 0.213358 15.2764 0.206928C15.2899 0.200499 15.3051 0.198526 15.3198 0.20129C16.9603 0.486268 18.5291 0.983752 19.9923 1.65909C20.0052 1.66458 20.0158 1.67382 20.0221 1.68652ZM10.2932 9.87783C10.3112 8.60424 9.38839 7.55037 8.22995 7.55037C7.08098 7.55037 6.16702 8.595 6.16702 9.87783C6.16702 11.1604 7.09906 12.205 8.22995 12.205C9.37921 12.205 10.2932 11.1604 10.2932 9.87783ZM17.921 9.87783C17.9391 8.60424 17.0163 7.55037 15.8581 7.55037C14.7088 7.55037 13.7949 8.595 13.7949 9.87783C13.7949 11.1604 14.7269 12.205 15.8581 12.205C17.0163 12.205 17.921 11.1604 17.921 9.87783Z" fill="#5865F2"/>
</svg>
