<svg width="24" height="22" viewBox="0 0 24 22" fill="none" xmlns="http://www.w3.org/2000/svg">
<path fill-rule="evenodd" clip-rule="evenodd" d="M11.8708 0.000549316C18.3618 0.000549316 23.6238 4.2141 23.6238 9.41179C23.6238 11.2273 22.9813 12.9224 21.8691 14.3601C21.8141 14.4419 21.7422 14.5323 21.6515 14.6322L21.6446 14.6397C21.2647 15.0942 20.8369 15.5209 20.3665 15.9148C17.1164 18.9189 11.7667 22.4956 11.0607 21.9437C10.4469 21.4641 12.0716 19.1181 10.1971 18.7276C10.0664 18.7126 9.93596 18.6965 9.80663 18.6782L9.80417 18.678V18.6778C4.29874 17.8957 0.11792 14.0448 0.11792 9.41179C0.11775 4.2141 5.3798 0.000549316 11.8708 0.000549316Z" fill="#3ACE01"/>
<path fill-rule="evenodd" clip-rule="evenodd" d="M5.05216 12.4131H7.42254C7.75971 12.4131 8.03549 12.1373 8.03549 11.8001V11.749C8.03549 11.4118 7.75971 11.136 7.42254 11.136H5.71624V7.25388C5.71624 6.91671 5.44047 6.64093 5.10329 6.64093H5.05216C4.71498 6.64093 4.43921 6.91671 4.43921 7.25388V11.8C4.43921 12.1373 4.71498 12.4131 5.05216 12.4131ZM19.7403 9.56355V9.51241C19.7403 9.17524 19.4644 8.89946 19.1273 8.89946H17.421V7.9289H19.1273C19.4644 7.9289 19.7403 7.65313 19.7403 7.31595V7.26482C19.7403 6.92765 19.4644 6.65187 19.1273 6.65187H16.7569C16.4197 6.65187 16.1439 6.92765 16.1439 7.26482V11.811C16.1439 12.1481 16.4197 12.424 16.7569 12.424H19.1273C19.4644 12.424 19.7403 12.1481 19.7403 11.811V11.7598C19.7403 11.4227 19.4644 11.1469 19.1273 11.1469H17.421V10.1763H19.1273C19.4644 10.1765 19.7403 9.90063 19.7403 9.56355ZM15.1818 12.2304L15.1819 12.2301C15.2953 12.1158 15.359 11.9613 15.3592 11.8002V7.25405C15.3592 6.91688 15.0834 6.6411 14.7461 6.6411H14.695C14.3578 6.6411 14.082 6.91688 14.082 7.25405V9.92268L11.8665 6.95105C11.7607 6.76627 11.5614 6.6411 11.3343 6.6411H11.2832C10.946 6.6411 10.6701 6.91688 10.6701 7.25405V11.8002C10.6701 12.1374 10.9459 12.4132 11.2832 12.4132H11.3343C11.6715 12.4132 11.9472 12.1374 11.9472 11.8002V9.08162L14.1787 12.1295C14.1925 12.1509 14.2075 12.1714 14.2237 12.1909L14.2237 12.1911C14.2851 12.2747 14.3689 12.332 14.4624 12.367C14.5342 12.3967 14.6127 12.4131 14.6949 12.4131H14.746C14.8459 12.4132 14.9443 12.3886 15.0324 12.3416C15.0937 12.3124 15.1454 12.2748 15.1818 12.2304ZM9.14317 12.4131H9.19431C9.53148 12.4131 9.80726 12.1373 9.80726 11.8001V7.25396C9.80726 6.91679 9.53148 6.64102 9.19431 6.64102H9.14317C8.806 6.64102 8.53014 6.91679 8.53014 7.25396V11.8001C8.53014 12.1373 8.806 12.4131 9.14317 12.4131Z" fill="white"/>
</svg>
