<svg xmlns="http://www.w3.org/2000/svg" fill="none" viewBox="9.504 9.68 24.816 24.816" style="max-height: 500px" width="24.816" height="24.816">
<path fill="url(#paint0_radial_22_287)" d="M17.9941 22C17.9941 19.7884 19.7875 17.9951 22.0004 17.9951C24.2134 17.9951 26.0077 19.7884 26.0077 22C26.0077 24.2116 24.2134 26.0049 22.0004 26.0049C19.7875 26.0049 17.9941 24.2116 17.9941 22ZM15.8278 22C15.8278 25.4071 18.5913 28.1689 22.0004 28.1689C25.4096 28.1689 28.1731 25.4071 28.1731 22C28.1731 18.5929 25.4096 15.8311 22.0004 15.8311C18.5913 15.8311 15.8278 18.5929 15.8278 22ZM26.9749 15.5865C26.9748 15.8716 27.0593 16.1504 27.2177 16.3875C27.3761 16.6247 27.6013 16.8095 27.8649 16.9188C28.1284 17.028 28.4184 17.0566 28.6983 17.0011C28.9781 16.9456 29.2352 16.8084 29.437 16.6069C29.6388 16.4053 29.7763 16.1485 29.8321 15.8689C29.8879 15.5893 29.8594 15.2994 29.7503 15.0359C29.6413 14.7724 29.4565 14.5472 29.2193 14.3887C28.9822 14.2302 28.7033 14.1455 28.418 14.1454H28.4174C28.035 14.1456 27.6683 14.2975 27.3978 14.5677C27.1273 14.8379 26.9752 15.2043 26.9749 15.5865ZM17.144 31.7789C15.972 31.7256 15.335 31.5305 14.9116 31.3656C14.3504 31.1473 13.95 30.8872 13.5289 30.467C13.1079 30.0468 12.8473 29.647 12.6298 29.0861C12.4648 28.6632 12.2695 28.0264 12.2163 26.8551C12.158 25.5888 12.1463 25.2084 12.1463 22.0001C12.1463 18.7919 12.1589 18.4125 12.2163 17.1451C12.2696 15.9738 12.4663 15.3382 12.6298 14.9141C12.8483 14.3532 13.1085 13.953 13.5289 13.5322C13.9494 13.1115 14.3494 12.851 14.9116 12.6336C15.3348 12.4687 15.972 12.2736 17.144 12.2203C18.4111 12.1621 18.7917 12.1505 22.0004 12.1505C25.2092 12.1505 25.5902 12.1631 26.8583 12.2203C28.0303 12.2737 28.6663 12.4702 29.0907 12.6336C29.6519 12.851 30.0524 13.1121 30.4734 13.5322C30.8944 13.9524 31.1541 14.3532 31.3726 14.9141C31.5376 15.337 31.7328 15.9738 31.7861 17.1451C31.8444 18.4125 31.856 18.7919 31.856 22.0001C31.856 25.2084 31.8444 25.5877 31.7861 26.8551C31.7327 28.0264 31.5365 28.663 31.3726 29.0861C31.1541 29.647 30.8938 30.0472 30.4734 30.467C30.0529 30.8868 29.6519 31.1473 29.0907 31.3656C28.6676 31.5306 28.0303 31.7257 26.8583 31.7789C25.5912 31.8372 25.2106 31.8488 22.0004 31.8488C18.7903 31.8488 18.4107 31.8372 17.144 31.7789ZM17.0444 10.059C15.7647 10.1173 14.8903 10.3201 14.1266 10.617C13.3357 10.9237 12.6662 11.3352 11.9972 12.0027C11.3281 12.6703 10.9175 13.3405 10.6106 14.1309C10.3135 14.8946 10.1106 15.768 10.0523 17.047C9.99305 18.3279 9.97949 18.7375 9.97949 22C9.97949 25.2626 9.99305 25.6721 10.0523 26.953C10.1106 28.2321 10.3135 29.1054 10.6106 29.8691C10.9175 30.659 11.3282 31.33 11.9972 31.9973C12.6661 32.6646 13.3357 33.0754 14.1266 33.383C14.8917 33.68 15.7647 33.8828 17.0444 33.941C18.3268 33.9992 18.7359 34.0138 22.0004 34.0138C25.2649 34.0138 25.6747 34.0002 26.9564 33.941C28.2362 33.8828 29.1101 33.68 29.8743 33.383C30.6647 33.0754 31.3347 32.6649 32.0037 31.9973C32.6727 31.3297 33.0825 30.659 33.3902 29.8691C33.6874 29.1054 33.8913 28.232 33.9486 26.953C34.0069 25.6711 34.0204 25.2626 34.0204 22C34.0204 18.7375 34.0069 18.3279 33.9486 17.047C33.8903 15.768 33.6874 14.8941 33.3902 14.1309C33.0825 13.341 32.6717 12.6714 32.0037 12.0027C31.3357 11.3341 30.6647 10.9237 29.8752 10.617C29.1101 10.3201 28.2361 10.1163 26.9574 10.059C25.6757 10.0008 25.2659 9.98627 22.0014 9.98627C18.7369 9.98627 18.3268 9.99982 17.0444 10.059Z"/>
<path fill="url(#paint1_radial_22_287)" d="M17.9941 22C17.9941 19.7884 19.7875 17.9951 22.0004 17.9951C24.2134 17.9951 26.0077 19.7884 26.0077 22C26.0077 24.2116 24.2134 26.0049 22.0004 26.0049C19.7875 26.0049 17.9941 24.2116 17.9941 22ZM15.8278 22C15.8278 25.4071 18.5913 28.1689 22.0004 28.1689C25.4096 28.1689 28.1731 25.4071 28.1731 22C28.1731 18.5929 25.4096 15.8311 22.0004 15.8311C18.5913 15.8311 15.8278 18.5929 15.8278 22ZM26.9749 15.5865C26.9748 15.8716 27.0593 16.1504 27.2177 16.3875C27.3761 16.6247 27.6013 16.8095 27.8649 16.9188C28.1284 17.028 28.4184 17.0566 28.6983 17.0011C28.9781 16.9456 29.2352 16.8084 29.437 16.6069C29.6388 16.4053 29.7763 16.1485 29.8321 15.8689C29.8879 15.5893 29.8594 15.2994 29.7503 15.0359C29.6413 14.7724 29.4565 14.5472 29.2193 14.3887C28.9822 14.2302 28.7033 14.1455 28.418 14.1454H28.4174C28.035 14.1456 27.6683 14.2975 27.3978 14.5677C27.1273 14.8379 26.9752 15.2043 26.9749 15.5865ZM17.144 31.7789C15.972 31.7256 15.335 31.5305 14.9116 31.3656C14.3504 31.1473 13.95 30.8872 13.5289 30.467C13.1079 30.0468 12.8473 29.647 12.6298 29.0861C12.4648 28.6632 12.2695 28.0264 12.2163 26.8551C12.158 25.5888 12.1463 25.2084 12.1463 22.0001C12.1463 18.7919 12.1589 18.4125 12.2163 17.1451C12.2696 15.9738 12.4663 15.3382 12.6298 14.9141C12.8483 14.3532 13.1085 13.953 13.5289 13.5322C13.9494 13.1115 14.3494 12.851 14.9116 12.6336C15.3348 12.4687 15.972 12.2736 17.144 12.2203C18.4111 12.1621 18.7917 12.1505 22.0004 12.1505C25.2092 12.1505 25.5902 12.1631 26.8583 12.2203C28.0303 12.2737 28.6663 12.4702 29.0907 12.6336C29.6519 12.851 30.0524 13.1121 30.4734 13.5322C30.8944 13.9524 31.1541 14.3532 31.3726 14.9141C31.5376 15.337 31.7328 15.9738 31.7861 17.1451C31.8444 18.4125 31.856 18.7919 31.856 22.0001C31.856 25.2084 31.8444 25.5877 31.7861 26.8551C31.7327 28.0264 31.5365 28.663 31.3726 29.0861C31.1541 29.647 30.8938 30.0472 30.4734 30.467C30.0529 30.8868 29.6519 31.1473 29.0907 31.3656C28.6676 31.5306 28.0303 31.7257 26.8583 31.7789C25.5912 31.8372 25.2106 31.8488 22.0004 31.8488C18.7903 31.8488 18.4107 31.8372 17.144 31.7789ZM17.0444 10.059C15.7647 10.1173 14.8903 10.3201 14.1266 10.617C13.3357 10.9237 12.6662 11.3352 11.9972 12.0027C11.3281 12.6703 10.9175 13.3405 10.6106 14.1309C10.3135 14.8946 10.1106 15.768 10.0523 17.047C9.99305 18.3279 9.97949 18.7375 9.97949 22C9.97949 25.2626 9.99305 25.6721 10.0523 26.953C10.1106 28.2321 10.3135 29.1054 10.6106 29.8691C10.9175 30.659 11.3282 31.33 11.9972 31.9973C12.6661 32.6646 13.3357 33.0754 14.1266 33.383C14.8917 33.68 15.7647 33.8828 17.0444 33.941C18.3268 33.9992 18.7359 34.0138 22.0004 34.0138C25.2649 34.0138 25.6747 34.0002 26.9564 33.941C28.2362 33.8828 29.1101 33.68 29.8743 33.383C30.6647 33.0754 31.3347 32.6649 32.0037 31.9973C32.6727 31.3297 33.0825 30.659 33.3902 29.8691C33.6874 29.1054 33.8913 28.232 33.9486 26.953C34.0069 25.6711 34.0204 25.2626 34.0204 22C34.0204 18.7375 34.0069 18.3279 33.9486 17.047C33.8903 15.768 33.6874 14.8941 33.3902 14.1309C33.0825 13.341 32.6717 12.6714 32.0037 12.0027C31.3357 11.3341 30.6647 10.9237 29.8752 10.617C29.1101 10.3201 28.2361 10.1163 26.9574 10.059C25.6757 10.0008 25.2659 9.98627 22.0014 9.98627C18.7369 9.98627 18.3268 9.99982 17.0444 10.059Z"/>
<defs>
<radialGradient gradientTransform="translate(13.1736 34.1273) scale(31.3847 31.3659)" gradientUnits="userSpaceOnUse" r="1" cy="0" cx="0" id="paint0_radial_22_287">
<stop stop-color="#FA8F21" offset="0.09"/>
<stop stop-color="#D82D7E" offset="0.78"/>
</radialGradient>
<radialGradient gradientTransform="translate(24.5598 35.2037) scale(24.7355 24.7206)" gradientUnits="userSpaceOnUse" r="1" cy="0" cx="0" id="paint1_radial_22_287">
<stop stop-opacity="0" stop-color="#8C3AAA" offset="0.64"/>
<stop stop-color="#8C3AAA" offset="1"/>
</radialGradient>
</defs>
</svg>